<?xml version="1.0" encoding="UTF-8" standalone="no"?>
<!-- Generator: Adobe Illustrator 26.0.1, SVG Export Plug-In . SVG Version: 6.00 Build 0)  -->

<svg
   version="1.1"
   id="Layer_1"
   x="0px"
   y="0px"
   viewBox="-2 0 40 40"
   xml:space="preserve"
   sodipodi:docname="360w.svg"
   width="40"
   height="40"
   inkscape:version="1.2.1 (9c6d41e410, 2022-07-14)"
   xmlns:inkscape="http://www.inkscape.org/namespaces/inkscape"
   xmlns:sodipodi="http://sodipodi.sourceforge.net/DTD/sodipodi-0.dtd"
   xmlns="http://www.w3.org/2000/svg"
   xmlns:svg="http://www.w3.org/2000/svg"><defs
   id="defs21" /><sodipodi:namedview
   id="namedview19"
   pagecolor="#ffffff"
   bordercolor="#000000"
   borderopacity="0.25"
   inkscape:showpageshadow="2"
   inkscape:pageopacity="0.0"
   inkscape:pagecheckerboard="0"
   inkscape:deskcolor="#d1d1d1"
   showgrid="false"
   inkscape:zoom="3.5478672"
   inkscape:cx="4.3688219"
   inkscape:cy="63.982102"
   inkscape:window-width="1280"
   inkscape:window-height="961"
   inkscape:window-x="3192"
   inkscape:window-y="-8"
   inkscape:window-maximized="1"
   inkscape:current-layer="Layer_1" />
<style
   type="text/css"
   id="style2">
	.st0{fill:#010101;}
	.st1{fill:#050404;}
</style>
<g
   id="g16"
   transform="matrix(1.25,0,0,1.25,31.747184,33.798611)"
   style="fill:#ffffff">
	
	
	<g
   id="g187"
   transform="matrix(0.37211252,0,0,0.37175681,-26.999424,-26.972799)"
   style="fill:#ffffff"><path
     class="st0"
     d="m 86,39.5 c 0,0.2 0,0.3 0,0.5 -0.1,0.1 -0.1,0.2 0,0.3 0,0.2 0,0.3 0,0.5 -0.1,0.4 -0.1,0.9 0,1.3 0,0.5 0,1 0,1.5 -0.1,0.4 -0.1,0.8 0,1.2 0,0.6 0,1.1 0,1.7 -0.2,0.9 -0.1,1.9 -0.2,2.8 -1.2,8 -4.4,15.1 -9.5,21.3 -4,4.9 -8.9,8.7 -14.6,11.4 -3.9,1.9 -8.1,3.1 -12.4,3.7 -1,0.1 -2,0.1 -3,0.2 -0.2,0 -0.4,0 -0.7,0 -0.1,-0.1 -0.2,-0.1 -0.3,0 -1.5,0 -2.9,0 -4.4,0 -0.1,-0.1 -0.2,-0.1 -0.3,0 -0.3,0 -0.7,0 -1,0 C 38.7,85.7 37.7,85.8 36.8,85.7 30.2,84.8 24.2,82.4 18.7,78.6 12.3,74.2 7.5,68.6 4.1,61.6 2,57.2 0.6,52.6 0.2,47.7 -0.5,39 0.6,30.7 4.8,22.9 c 1.7,-3.2 3.8,-6.2 6.3,-9 3.8,-4.2 8.3,-7.6 13.4,-10 4.4,-2.1 9,-3.6 13.9,-3.9 5.4,-0.3 10.7,-0.4 16,1.2 3.5,1 6.9,2.3 10.1,4.2 1.4,0.8 1.6,2.3 0.5,3.3 C 64.3,9.3 63.6,9.2 62.9,8.8 62.3,8.5 61.6,8.2 61,7.9 60.4,7.6 59.8,7.3 59.1,7 c 2.7,2.7 4.9,5.7 6.5,9.1 0.9,2 2.2,3.3 4.3,4.3 3.4,1.6 6.4,3.8 9.1,6.5 -1.2,-2.6 -2.6,-5.1 -4.3,-7.4 -0.3,-0.4 -0.7,-0.9 -1,-1.4 -0.6,-1 -0.4,-2 0.4,-2.6 0.8,-0.6 2,-0.4 2.7,0.4 1.2,1.4 2.2,3 3.2,4.6 2.8,4.6 4.7,9.6 5.6,15 0.3,1.4 0.2,2.8 0.4,4 z M 35.6,18.4 c -4.5,0.5 -8.9,1.6 -13.2,3.2 -0.4,0.1 -0.6,0.3 -0.8,0.7 -2,5.3 -3.2,10.7 -3.6,16.3 -0.3,4 -0.2,7.9 0.3,11.9 0.5,4.5 1.6,8.9 3.3,13.2 0.2,0.4 0.4,0.6 0.8,0.8 1.3,0.4 2.7,1 4,1.4 7.3,2.1 14.7,2.8 22.2,2.1 5.1,-0.5 10.1,-1.5 14.9,-3.4 0.5,-0.2 0.8,-0.5 1,-1 C 66.6,58 67.8,52.2 68,46.2 68.4,38.1 67.3,30.3 64.5,22.7 64.3,22.2 64,21.9 63.5,21.6 57,19 50.1,18 42.8,17.9 40.6,18 38.1,18.1 35.6,18.4 Z m 43.2,35.5 c 4.9,-6.5 5.1,-14.1 0.5,-20.8 -2.6,-3.8 -6.1,-6.5 -10.1,-8.8 -0.1,-0.1 -0.3,-0.3 -0.5,-0.2 2,6.2 2.9,12.5 2.9,18.9 0,6.5 -0.9,12.8 -2.9,19.1 4,-2.1 7.4,-4.7 10.1,-8.2 z M 62.1,17.4 c 0,-0.1 0,-0.2 0,-0.2 C 60,13.4 57.4,10 53.9,7.4 47.7,2.6 40.1,2.3 33.6,6.5 c -4.2,2.7 -7.2,6.6 -9.7,11 12.9,-3.9 25.5,-3.9 38.2,-0.1 z M 34.6,80.3 c 3.5,2 7.3,2.9 11.4,2.1 3.6,-0.7 6.6,-2.4 9.3,-4.8 2.8,-2.5 5,-5.5 6.9,-8.9 -12.8,3.9 -25.4,3.9 -38.2,0 2.2,4.6 6.3,9.1 10.6,11.6 z M 6.4,33.7 c -2.6,4 -3.6,8.3 -2.5,13 1.8,7.4 7.2,11.8 13.5,15.5 -3.9,-12.8 -3.9,-25.5 0,-38.3 -4.4,2.5 -8.3,5.5 -11,9.8 z M 7,27.5 c 3.4,-3.4 7.4,-6 11.8,-8 0.5,-0.2 0.6,-0.6 0.8,-1 2,-4.2 4.4,-8.1 7.7,-11.4 C 27.4,7 27.6,6.9 27.6,6.5 17.9,11 11,17.9 6.8,27.6 c 0.1,0 0.2,0 0.2,-0.1 z m 72.6,30.9 c -0.3,0.2 -0.4,0.2 -0.5,0.3 -3.4,3.4 -7.4,6 -11.8,8 -0.3,0.1 -0.5,0.3 -0.7,0.7 -2.1,4.5 -4.7,8.6 -8.2,12.2 9.8,-4.3 16.8,-11.3 21.2,-21.2 z m -52,21 c 0,-0.1 0,-0.2 -0.1,-0.3 -3.4,-3.4 -6,-7.3 -7.9,-11.7 C 19.4,67 19.1,66.7 18.7,66.5 15.3,65 12.2,63.1 9.4,60.7 8.6,60 7.7,59.2 6.9,58.5 c 4.1,9.7 11,16.7 20.7,20.9 z"
     id="path4"
     style="fill:#ffffff" /><path
     class="st1"
     d="m 71.6,11.7 c 0,1 -0.7,1.7 -1.7,1.7 -0.9,0 -1.7,-0.7 -1.7,-1.6 0,-0.9 0.8,-1.7 1.7,-1.7 1,-0.1 1.7,0.7 1.7,1.6 z"
     id="path6"
     style="fill:#ffffff" /><g
     id="g14"
     style="fill:#ffffff">
		<path
   class="st0"
   d="m 27.9,52.1 c -3.5,0 -5.8,-2.2 -6,-5.1 0,-1.1 0.6,-1.9 1.5,-1.9 1,-0.1 1.8,0.6 1.9,1.7 0.1,1.2 1,2 2.1,2 1,-0.1 1.8,-0.9 1.9,-1.9 0.1,-1.1 -0.7,-2 -1.9,-2.1 -1.1,-0.1 -1.7,-0.7 -1.7,-1.7 0,-1 0.6,-1.6 1.7,-1.7 1.1,-0.2 1.9,-0.9 1.9,-2 0,-1 -0.7,-1.8 -1.7,-2 -0.9,-0.2 -1.9,0.4 -2.2,1.5 -0.4,1.2 -1.2,1.7 -2.2,1.4 -1,-0.3 -1.4,-1.2 -1.1,-2.4 0.7,-2.2 2.2,-3.5 4.4,-3.8 2.3,-0.3 4.1,0.6 5.3,2.6 1.2,2 1.1,3.9 -0.2,5.8 -0.4,0.5 -0.3,0.8 0,1.3 1.2,1.8 1.3,3.6 0.4,5.5 -1,1.8 -2.6,2.7 -4.1,2.8 z"
   id="path8"
   style="fill:#ffffff" />
		<path
   class="st0"
   d="m 64.2,43.1 c 0,1.5 0.2,3 -0.1,4.5 -0.7,2.9 -3.1,4.6 -6.1,4.5 -2.6,-0.1 -5,-2.3 -5.3,-5.2 -0.2,-2.7 -0.3,-5.5 0.1,-8.2 0.4,-2.9 3,-4.9 6.1,-4.7 2.7,0.1 5.1,2.5 5.3,5.3 0.1,1.3 0,2.6 0,3.8 z m -3.3,-3.3 c 0,-1.4 -1,-2.4 -2.3,-2.5 -1.3,0 -2.4,1 -2.4,2.3 -0.1,2.2 -0.1,4.5 0,6.7 0,1.4 1.2,2.4 2.4,2.3 1.3,0 2.3,-1.1 2.3,-2.5 0,-1.1 0,-2.1 0,-3.2 0,-0.9 0,-2 0,-3.1 z"
   id="path10"
   style="fill:#ffffff" />
		<path
   class="st0"
   d="m 43.4,40.2 c 3.3,0.4 5.5,3.3 5.2,6.7 -0.3,3.1 -3.2,5.4 -6.5,5.2 -3.1,-0.2 -5.6,-3 -5.4,-6.2 0.3,-4.6 2.3,-8.4 5.8,-11.4 0.8,-0.7 1.8,-0.6 2.5,0.1 0.6,0.8 0.6,1.7 -0.3,2.4 -0.9,0.8 -1.8,1.8 -2.5,2.8 -0.1,0.3 0.2,0.2 0.3,0.3 0.3,0.1 0.6,0 0.9,0.1 z M 40,46.1 c 0,1.5 1.2,2.7 2.6,2.7 1.4,0 2.6,-1.2 2.6,-2.6 0,-1.4 -1.2,-2.6 -2.6,-2.6 -1.4,-0.1 -2.5,1.1 -2.6,2.5 z"
   id="path12"
   style="fill:#ffffff" />
	</g></g>
</g>
</svg>
