<?xml version="1.0" encoding="UTF-8" standalone="no"?>
<svg
   width="40"
   height="40"
   viewBox="0 0 40 40"
   version="1.1"
   id="svg12"
   sodipodi:docname="Gif 40.svg"
   inkscape:version="1.3 (0e150ed6c4, 2023-07-21)"
   inkscape:export-filename="Gif 40.png"
   inkscape:export-xdpi="96"
   inkscape:export-ydpi="96"
   xmlns:inkscape="http://www.inkscape.org/namespaces/inkscape"
   xmlns:sodipodi="http://sodipodi.sourceforge.net/DTD/sodipodi-0.dtd"
   xmlns="http://www.w3.org/2000/svg"
   xmlns:svg="http://www.w3.org/2000/svg">
  <sodipodi:namedview
     id="namedview12"
     pagecolor="#ffffff"
     bordercolor="#000000"
     borderopacity="0.25"
     inkscape:showpageshadow="2"
     inkscape:pageopacity="0.0"
     inkscape:pagecheckerboard="0"
     inkscape:deskcolor="#d1d1d1"
     inkscape:zoom="12.425"
     inkscape:cx="19.959759"
     inkscape:cy="20"
     inkscape:window-width="1920"
     inkscape:window-height="1017"
     inkscape:window-x="1272"
     inkscape:window-y="-8"
     inkscape:window-maximized="1"
     inkscape:current-layer="svg12" />
  <defs
     id="defs1">
    <style
       id="style1">&#10;      .cls-1 {&#10;        fill: #4d4d4d;&#10;      }&#10;    </style>
  </defs>
  <path
     class="cls-1"
     d="m 4.3067992,10.937101 h 4.7775423 v 1.769532 H 1.0015812 V 4.5887821 H 2.7343167 V 9.7274215 A 20.47232,20.434589 0 0 1 15.35424,0.58984101 19.37058,19.33488 0 0 1 30.648385,3.0791819 20.031624,19.994706 0 0 1 20.081703,39.989408 V 38.239872 A 18.028462,17.995235 0 0 0 34.975216,30.371955 17.758035,17.725307 0 0 0 38.190291,18.625065 18.178699,18.145195 0 0 0 4.3067992,10.937101 Z"
     id="path1"
     style="stroke-width:1.00066" />
  <path
     class="cls-1"
     d="m 16.205584,21.634269 h -2.684238 v -1.849511 h 4.837637 v 1.129701 c 0,0.809786 0,1.619571 0,2.429357 a 0.88139146,0.87976705 0 0 1 -0.150237,0.479873 5.7590919,5.7484779 0 0 1 -8.7037404,-0.479873 5.2382697,5.2286155 0 0 1 -0.320506,-5.538533 5.007906,4.9986764 0 0 1 4.6273054,-2.809257 4.7274633,4.7187505 0 0 1 4.296783,2.059455 1.5824983,1.5795817 0 0 1 0.130206,0.219942 c -0.560886,0.309918 -1.10174,0.619836 -1.662625,0.899762 -0.05008,0 -0.200316,0 -0.250395,-0.109971 a 3.0047436,2.9992058 0 0 0 -3.836056,-0.759799 3.3953603,3.3891026 0 0 0 -1.572483,3.769002 3.1149175,3.1091767 0 0 0 3.004744,2.519333 3.4053761,3.3991 0 0 0 2.003162,-0.519863 0.59093291,0.58984382 0 0 0 0.350553,-0.619835 c -0.09014,-0.219942 -0.07011,-0.459879 -0.07011,-0.819783 z"
     id="path2"
     style="stroke-width:1.00066" />
  <path
     class="cls-1"
     d="m 31.489713,15.225966 v 1.889499 h -5.007906 v 2.129436 h 4.8777 v 1.899497 h -4.897732 v 4.208886 H 24.318392 V 15.225966 Z"
     id="path3"
     style="stroke-width:1.00066" />
  <path
     class="cls-1"
     d="M 20.121766,25.373279 V 15.235963 h 2.113337 v 10.137316 z"
     id="path4"
     style="stroke-width:1.00066" />
  <path
     class="cls-1"
     d="M 0.13020556,22.054157 0,20.054687 h 1.8328936 l 0.1001581,1.819518 z"
     id="path5"
     style="stroke-width:1.00066" />
  <path
     class="cls-1"
     d="M 2.183447,23.59375 2.6041111,25.273305 0.87137564,25.793167 0.40063248,23.993644 Z"
     id="path6"
     style="stroke-width:1.00066" />
  <path
     class="cls-1"
     d="M 9.6251953,34.990732 11.09752,35.900491 10.206112,37.480073 8.5935667,36.480338 Z"
     id="path7"
     style="stroke-width:1.00066" />
  <path
     class="cls-1"
     d="m 15.554556,39.519533 0.400633,-1.769532 1.702688,0.309918 -0.230364,1.779529 z"
     id="path8"
     style="stroke-width:1.00066" />
  <path
     class="cls-1"
     d="M 3.1750124,26.922868 3.9161825,28.482455 2.3136526,29.322233 1.5023718,27.612686 Z"
     id="path9"
     style="stroke-width:1.00066" />
  <path
     class="cls-1"
     d="M 4.7975739,29.992056 5.7991551,31.391685 4.3969415,32.521386 3.2851863,30.991791 Z"
     id="path10"
     style="stroke-width:1.00066" />
  <path
     class="cls-1"
     d="m 12.659986,36.650293 1.612546,0.629833 -0.570901,1.709547 -1.772799,-0.67982 z"
     id="path11"
     style="stroke-width:1.00066" />
  <path
     class="cls-1"
     d="m 5.7490761,33.990997 1.2619923,-1.289659 1.2619923,1.16969 -1.1918816,1.379635 z"
     id="path12"
     style="stroke-width:1.00066" />
</svg>
