<?xml version="1.0" encoding="UTF-8" standalone="no"?>
<svg
   height="40"
   viewBox="0 0 40 40"
   width="40"
   version="1.1"
   id="svg4"
   sodipodi:docname="vdo.svg"
   inkscape:version="1.2.1 (9c6d41e410, 2022-07-14)"
   xmlns:inkscape="http://www.inkscape.org/namespaces/inkscape"
   xmlns:sodipodi="http://sodipodi.sourceforge.net/DTD/sodipodi-0.dtd"
   xmlns="http://www.w3.org/2000/svg"
   xmlns:svg="http://www.w3.org/2000/svg">
  <defs
     id="defs8" />
  <sodipodi:namedview
     id="namedview6"
     pagecolor="#ffffff"
     bordercolor="#000000"
     borderopacity="0.25"
     inkscape:showpageshadow="2"
     inkscape:pageopacity="0.0"
     inkscape:pagecheckerboard="0"
     inkscape:deskcolor="#d1d1d1"
     showgrid="false"
     inkscape:zoom="7.7053571"
     inkscape:cx="2.5307069"
     inkscape:cy="36.078795"
     inkscape:window-width="1280"
     inkscape:window-height="961"
     inkscape:window-x="3192"
     inkscape:window-y="-8"
     inkscape:window-maximized="1"
     inkscape:current-layer="svg4" />
  <path
     d="m 20,0 q 5.44271,0 10.03906,2.68229 4.59636,2.68229 7.27865,7.27865 Q 40,14.55729 40,20 40,25.44271 37.31771,30.03906 34.63542,34.63542 30.03906,37.31771 25.44271,40 20,40 14.55729,40 9.96094,37.31771 5.36458,34.63542 2.68229,30.03906 0,25.44271 0,20 0,14.55729 2.68229,9.96094 5.36458,5.36458 9.96094,2.68229 14.55729,0 20,0 Z M 30,21.43229 Q 30.83333,20.96354 30.83333,20 30.83333,19.03646 30,18.56771 L 15.83333,10.23437 q -0.80729,-0.49479 -1.66666,-0.026 -0.83334,0.49479 -0.83334,1.45834 v 16.66666 q 0,0.96354 0.83334,1.45834 Q 14.58333,30 15,30 q 0.44271,0 0.83333,-0.23438 z"
     id="path2"
     style="stroke-width:0.0260416;fill:#ffffff" />
</svg>
